HIERARCHY
ROOT Hips
{
	OFFSET 0.00000 0.00000 0.00000
	CHANNELS 6 Xposition Yposition Zposition Zrotation Yrotation Xrotation 
	JOINT LHipJoint
	{
		OFFSET 0 0 0
		CHANNELS 3 Zrotation Yrotation Xrotation
		JOINT LeftUpLeg
		{
			OFFSET 1.38691 -1.89057 0.78360
			CHANNELS 3 Zrotation Yrotation Xrotation
			JOINT LeftLeg
			{
				OFFSET 2.59731 -7.13606 0.00000
				CHANNELS 3 Zrotation Yrotation Xrotation
				JOINT LeftFoot
				{
					OFFSET 2.70078 -7.42033 0.00000
					CHANNELS 3 Zrotation Yrotation Xrotation
					JOINT LeftToeBase
					{
						OFFSET 0.16751 -0.46024 2.68862
						CHANNELS 3 Zrotation Yrotation Xrotation
						End Site
						{
							OFFSET 0.00000 -0.00000 1.37057
						}
					}
				}
			}
		}
	}
	JOINT RHipJoint
	{
		OFFSET 0 0 0
		CHANNELS 3 Zrotation Yrotation Xrotation
		JOINT RightUpLeg
		{
			OFFSET -1.38190 -1.89056 0.78359
			CHANNELS 3 Zrotation Yrotation Xrotation
			JOINT RightLeg
			{
				OFFSET -2.57785 -7.08258 0.00000
				CHANNELS 3 Zrotation Yrotation Xrotation
				JOINT RightFoot
				{
					OFFSET -2.77908 -7.63547 0.00000
					CHANNELS 3 Zrotation Yrotation Xrotation
					JOINT RightToeBase
					{
						OFFSET -0.17921 -0.49237 2.62360
						CHANNELS 3 Zrotation Yrotation Xrotation
						End Site
						{
							OFFSET -0.00000 -0.00000 1.34085
						}
					}
				}
			}
		}
	}
	JOINT LowerBack
	{
		OFFSET 0 0 0
		CHANNELS 3 Zrotation Yrotation Xrotation
		JOINT Spine
		{
			OFFSET -0.10749 2.04110 -0.22549
			CHANNELS 3 Zrotation Yrotation Xrotation
			JOINT Spine1
			{
				OFFSET 0.01213 2.05840 0.00691
				CHANNELS 3 Zrotation Yrotation Xrotation
				JOINT Neck
				{
					OFFSET 0 0 0
					CHANNELS 3 Zrotation Yrotation Xrotation
					JOINT Neck1
					{
						OFFSET 0.06585 1.81215 0.35449
						CHANNELS 3 Zrotation Yrotation Xrotation
						JOINT Head
						{
							OFFSET -0.04315 1.87555 -0.27307
							CHANNELS 3 Zrotation Yrotation Xrotation
							End Site
							{
								OFFSET -0.01775 1.89740 -0.13294
							}
						}
					}
				}
				JOINT LeftShoulder
				{
					OFFSET 0 0 0
					CHANNELS 3 Zrotation Yrotation Xrotation
					JOINT LeftArm
					{
						OFFSET 2.98012 1.63606 0.28888
						CHANNELS 3 Zrotation Yrotation Xrotation
						JOINT LeftForeArm
						{
							OFFSET 5.59864 -0.00000 -0.00000
							CHANNELS 3 Zrotation Yrotation Xrotation
							JOINT LeftHand
							{
								OFFSET 3.59542 -0.00000 -0.00000
								CHANNELS 3 Zrotation Yrotation Xrotation
								JOINT LeftFingerBase
								{
									OFFSET 0 0 0
									CHANNELS 3 Zrotation Yrotation Xrotation
									JOINT LeftHandIndex1
									{
										OFFSET 0.57201 -0.00000 -0.00000
										CHANNELS 3 Zrotation Yrotation Xrotation
										End Site
										{
											OFFSET 0.46117 -0.00000 -0.00000
										}
									}
								}
								JOINT LThumb
								{
									OFFSET 0 0 0
									CHANNELS 3 Zrotation Yrotation Xrotation
									End Site
									{
										OFFSET 0.46821 -0.00000 0.46821
									}
								}
							}
						}
					}
				}
				JOINT RightShoulder
				{
					OFFSET 0 0 0
					CHANNELS 3 Zrotation Yrotation Xrotation
					JOINT RightArm
					{
						OFFSET -3.08694 1.53706 0.36335
						CHANNELS 3 Zrotation Yrotation Xrotation
						JOINT RightForeArm
						{
							OFFSET -5.80940 -0.00000 -0.00000
							CHANNELS 3 Zrotation Yrotation Xrotation
							JOINT RightHand
							{
								OFFSET -3.66953 -0.00000 -0.00000
								CHANNELS 3 Zrotation Yrotation Xrotation
								JOINT RightFingerBase
								{
									OFFSET 0 0 0
									CHANNELS 3 Zrotation Yrotation Xrotation
									JOINT RightHandIndex1
									{
										OFFSET -0.57843 -0.00000 -0.00000
										CHANNELS 3 Zrotation Yrotation Xrotation
										End Site
										{
											OFFSET -0.46635 -0.00000 -0.00000
										}
									}
								}
								JOINT RThumb
								{
									OFFSET 0 0 0
									CHANNELS 3 Zrotation Yrotation Xrotation
									End Site
									{
										OFFSET -0.47347 -0.00000 0.47347
									}
								}
							}
						}
					}
				}
			}
		}
	}
}
MOTION
Frames: 9
Frame Time: .0083333
-15.286 19.377 -31.5807 0 0 0 0 0 0 -21 0 0 0 0 0 0 0 0 0 0 0 0 0 0 21 0 0 0 0 0 0 0 0 0 0 0 0 0 0 0 0 0 0 0 0 0 0 -16 0 0 21 0 0 11 0 0 0 -8 0 0 0 0 0 0 0 0 0 0 0 0 0 0 0 0 0 0 0 0 8 0 0 0 0 0 0 0 0 0 0 0 0 0 0 0 0 0
-15.2860 19.3770 -31.5807 6.5838 67.3431 10.3743 0.0000 0.0000 0.0000 -19.2113 -8.9187 -4.7969 3.6806 11.7229 34.7585 5.6973 -7.5203 -44.1372 1.7348 -8.2903 -23.5994 0.0000 0.0000 0.0000 15.4022 1.7667 -25.5225 -5.9220 -14.3523 44.6679 -4.9250 9.0792 -40.6707 -1.3803 7.4342 -21.0082 -0.6485 -5.0695 14.2280 1.4372 -6.6608 0.9725 3.1813 -3.1867 -6.6608 -1.7180 -6.3987 -17.3458 3.1186 -9.7495 39.1255 -0.1174 -3.4846 17.6229 -0.0000 0.0000 0.0000 -95.7297 -13.2072 70.2897 24.9327 -36.1351 -8.2502 -0.0000 0.0000 -26.5200 20.1388 8.4888 3.0986 -7.1250 0.0000 -0.0000 -5.8423 38.9499 0.8743 -0.0000 0.0000 0.0000 78.0180 -7.1405 21.8943 -27.0580 38.2344 -9.5350 0.0000 -0.0000 -12.6783 -34.7123 -2.1682 1.5014 7.1250 -0.0000 -0.0000 -6.5718 -32.5691 -2.0121
-15.2620 19.3687 -31.2369 5.5356 67.3733 9.8097 0.0000 0.0000 0.0000 -19.1495 -10.0552 -4.2707 3.5677 11.5617 34.1986 6.0904 -8.1465 -45.6804 1.6037 -7.9866 -22.6733 0.0000 0.0000 0.0000 15.6561 2.0180 -25.6401 -5.7974 -14.2291 44.1632 -4.9127 8.5754 -40.6605 -1.5770 7.9231 -22.4806 -0.5272 -5.0229 13.5863 1.5265 -6.5876 0.6858 3.1485 -3.1588 -6.6177 -1.8388 -6.3786 -17.2300 3.1573 -9.6915 39.2610 -0.0631 -3.4687 17.6798 -0.0000 0.0000 0.0000 -95.0787 -12.3030 69.8433 24.4911 -35.6793 -7.9912 -0.0000 0.0000 -26.7720 19.2728 9.3000 3.2342 -7.1250 0.0000 -0.0000 -6.7057 39.7353 0.8747 -0.0000 0.0000 0.0000 78.5664 -7.4430 21.9915 -26.9582 38.1393 -9.4733 0.0000 -0.0000 -12.2769 -34.8541 -1.9093 1.3292 7.1250 -0.0000 -0.0000 -6.6683 -32.2586 -2.0922
-15.2317 19.3919 -30.8880 4.1846 67.3338 8.9016 0.0000 0.0000 0.0000 -18.9229 -10.9046 -3.8943 3.4723 11.4230 33.7201 6.3158 -7.9554 -46.6060 1.4769 -7.6790 -21.7432 0.0000 0.0000 0.0000 16.1225 4.0177 -24.8527 -5.6498 -14.0802 43.5594 -5.2615 7.3371 -42.3147 -1.7617 8.3509 -23.7851 -0.3499 -4.9615 12.9679 1.6463 -6.4834 0.4387 3.1116 -3.1168 -6.5477 -1.9589 -6.3540 -17.1510 3.1984 -9.6300 39.4042 -0.0083 -3.4501 17.7509 0.0000 0.0000 0.0000 -94.4287 -11.4271 69.3370 24.0755 -35.2440 -7.7501 -0.0000 0.0000 -26.9091 18.6462 10.3065 3.4548 -7.1250 0.0000 -0.0000 -7.4132 40.7333 0.7848 0.0000 0.0000 0.0000 79.0937 -7.6875 22.1025 -26.8510 38.0367 -9.4072 0.0000 -0.0000 -11.8915 -34.9748 -1.7380 1.2154 7.1250 -0.0000 -0.0000 -6.7531 -32.0531 -2.1527
-15.1962 19.3994 -30.5465 3.7527 67.4850 8.8308 0.0000 0.0000 0.0000 -19.0312 -11.7857 -3.6654 3.3987 11.3140 33.3464 6.5094 -7.0294 -47.4820 1.5529 -7.8650 -22.3048 0.0000 0.0000 0.0000 16.2118 3.1325 -25.2328 -5.5405 -13.9678 43.1084 -5.0897 8.3485 -41.4599 -1.6910 8.1905 -23.2941 -0.3196 -5.0116 12.3089 1.6538 -6.5578 0.2129 3.0634 -3.1608 -6.4193 -2.0972 -6.3177 -17.0870 3.2574 -9.5513 39.5077 0.0605 -3.4272 17.8056 -0.0000 0.0000 0.0000 -93.7160 -10.5942 68.8149 23.7601 -34.9096 -7.5688 -0.0000 0.0000 -27.1039 17.9937 10.6105 3.4225 -7.1250 0.0000 -0.0000 -8.0370 40.9908 0.8005 -0.0000 0.0000 0.0000 79.6412 -7.8394 22.1798 -26.7133 37.9044 -9.3224 0.0000 -0.0000 -11.4323 -35.1149 -1.5586 1.0957 7.1250 -0.0000 -0.0000 -6.8521 -31.8374 -2.2205
-15.1621 19.4053 -30.2024 3.2337 67.5437 8.4889 0.0000 0.0000 0.0000 -19.0623 -12.2435 -3.4162 3.3363 11.2206 33.0274 6.6109 -6.0645 -48.0086 1.6052 -7.9901 -22.6840 0.0000 0.0000 0.0000 16.3979 2.7422 -25.2365 -5.4489 -13.8722 42.7278 -4.9789 8.7401 -40.9373 -1.6528 8.1021 -23.0247 -0.3516 -5.0114 11.8911 1.6720 -6.5693 0.0294 3.0713 -3.1687 -6.3742 -2.2359 -6.3197 -17.0475 3.3245 -9.5370 39.6328 0.1195 -3.4275 17.8830 -0.0000 0.0000 0.0000 -93.0195 -9.7193 68.2271 23.4408 -34.5673 -7.3869 -0.0000 0.0000 -27.0417 17.3160 11.4144 3.5307 -7.1250 0.0000 -0.0000 -8.7842 41.7578 0.7086 -0.0000 0.0000 0.0000 80.1276 -7.9490 22.2364 -26.5371 37.7341 -9.2144 0.0000 -0.0000 -11.0005 -35.3682 -1.4259 1.0119 7.1250 -0.0000 -0.0000 -7.0447 -31.6790 -2.3108
-15.1261 19.4146 -29.8669 2.9065 67.5064 8.4820 0.0000 0.0000 0.0000 -19.0915 -12.6799 -3.3656 3.2994 11.1646 32.8370 6.7502 -5.7308 -48.5979 1.6312 -8.0515 -22.8706 0.0000 0.0000 0.0000 16.4548 2.5141 -25.4748 -5.3966 -13.8169 42.5090 -4.9588 8.8976 -40.8349 -1.7023 8.2163 -23.3731 -0.3400 -5.0240 11.3142 1.6502 -6.5964 -0.1986 3.0025 -3.1875 -6.2956 -2.3664 -6.2778 -16.9658 3.4048 -9.4620 39.7332 0.1972 -3.4029 17.9330 -0.0000 -0.0000 0.0000 -92.3232 -8.8427 67.5810 23.1683 -34.2724 -7.2329 -0.0000 0.0000 -26.9782 16.4073 12.1695 3.5519 -7.1250 0.0000 -0.0000 -9.7432 42.4429 0.6212 -0.0000 -0.0000 0.0000 80.6172 -8.0215 22.2829 -26.3288 37.5316 -9.0872 0.0000 -0.0000 -10.7132 -35.4395 -1.3046 0.9283 7.1250 -0.0000 -0.0000 -7.0920 -31.5320 -2.3517
-15.0930 19.4121 -29.5351 2.9891 67.2790 8.7362 0.0000 0.0000 0.0000 -19.3456 -12.9956 -3.2154 3.2676 11.1162 32.6727 6.8835 -5.3581 -49.1670 1.6129 -8.0084 -22.7396 0.0000 0.0000 0.0000 16.3454 1.6688 -25.8997 -5.3674 -13.7860 42.3867 -4.7654 9.8374 -39.9055 -1.5844 7.9407 -22.5341 -0.5165 -4.9757 10.9376 1.5839 -6.5674 -0.4120 3.0014 -3.1708 -6.2998 -2.4752 -6.2320 -16.8988 3.4148 -9.3597 39.8246 0.2440 -3.3749 17.9722 -0.0000 0.0000 0.0000 -91.5976 -7.8727 66.8418 23.0058 -34.0951 -7.1415 -0.0000 0.0000 -26.7514 15.8580 13.0344 3.6658 -7.1250 0.0000 -0.0000 -10.4270 43.2668 0.4512 -0.0000 0.0000 0.0000 81.1103 -8.0474 22.1169 -26.1437 37.3503 -8.9747 0.0000 -0.0000 -10.8716 -34.9695 -1.0266 0.7179 7.1250 -0.0000 -0.0000 -6.6958 -31.1910 -2.2739
-15.0594 19.4182 -29.1936 2.8130 66.9388 8.7233 0.0000 0.0000 0.0000 -19.4449 -13.2896 -3.0455 3.2420 11.0768 32.5394 7.0180 -5.1306 -49.7154 1.5921 -7.9592 -22.5901 0.0000 0.0000 0.0000 16.3912 1.3321 -26.1194 -5.3431 -13.7601 42.2848 -4.5496 10.6502 -38.8883 -1.4443 7.5975 -21.4979 -0.7126 -4.8891 10.5383 1.5401 -6.4861 -0.5866 3.0218 -3.1285 -6.2474 -2.5621 -6.1812 -16.8764 3.4163 -9.2552 39.9115 0.2819 -3.3437 18.0182 0.0000 0.0000 0.0000 -90.8263 -6.9221 66.0301 22.8643 -33.9401 -7.0624 -0.0000 0.0000 -26.6906 15.0008 13.3646 3.5443 -7.1250 0.0000 -0.0000 -11.2713 43.5093 0.4203 0.0000 0.0000 0.0000 81.6144 -8.1052 22.5215 -25.6137 36.8247 -8.6551 0.0000 -0.0000 -9.2147 -36.4214 -1.0804 0.7971 7.1250 -0.0000 -0.0000 -7.8548 -31.2642 -2.6596
